<svg width="61" height="60" viewBox="0 0 61 60" fill="none" xmlns="http://www.w3.org/2000/svg">
<circle cx="30.5049" cy="30" r="30" fill="#FAFAFA"/>
<path d="M29.961 41C16.6545 41 13.9487 38.7824 13.6826 38.6271C13.6253 38.5779 13.5797 38.5164 13.549 38.4474C13.5183 38.3783 13.5033 38.3033 13.5052 38.2278V27.4051C13.5025 27.3209 13.5192 27.2372 13.5537 27.1604C13.5883 27.0835 13.64 27.0156 13.7048 26.9617C13.7674 26.9065 13.8426 26.8676 13.9238 26.8482C14.005 26.8289 14.0898 26.8297 14.1706 26.8507C19.4202 27.9297 24.7579 28.5237 30.1163 28.625H30.8924C37.1022 28.4919 44.8643 28.3366 45.3079 24.3668C45.3391 24.1207 45.3134 23.8707 45.2326 23.6361C45.1519 23.4016 45.0182 23.1887 44.8421 23.014C42.6243 20.5966 34.4408 20.0645 31.5355 20.0645C24.1948 20.0645 19.094 21.1067 18.8278 22.6591C18.7706 22.8975 18.7648 23.1456 18.8106 23.3865C18.8565 23.6274 18.9531 23.8556 19.0939 24.0563C20.2433 24.9702 21.6857 25.4354 23.1525 25.365C24.0839 25.365 25.1707 25.4979 26.3683 25.5423V22.5484C26.3708 22.4225 26.416 22.301 26.4966 22.2043C26.5772 22.1075 26.6883 22.0413 26.8117 22.0161C29.8057 21.3951 37.9005 22.0161 39.8743 23.6128C40.0395 23.7334 40.1752 23.8898 40.2712 24.0704C40.3673 24.2509 40.4212 24.4508 40.4288 24.6551C40.4323 24.8029 40.4023 24.9498 40.3408 25.0842C40.2793 25.2187 40.1881 25.3372 40.074 25.4313C38.1002 27.272 24.971 26.6513 23.0637 26.4738C22.1798 26.5231 21.295 26.3954 20.461 26.0983C19.627 25.8013 18.8605 25.3409 18.2068 24.7439C17.9772 24.4277 17.8155 24.0676 17.7315 23.6859C17.6476 23.3043 17.6433 22.9095 17.7189 22.5262C18.2069 19.6209 25.5032 19 31.5355 19C31.9791 19 42.8018 19 45.7293 22.3266C45.9934 22.6032 46.1984 22.9306 46.3319 23.2891C46.4653 23.6475 46.5244 24.0292 46.5054 24.4112V37.7178C46.5083 37.8487 46.4606 37.9759 46.3724 38.0727C46.1949 38.0727 43.4894 41 29.961 41ZM14.614 37.9173C15.4124 38.3608 19.0496 39.8911 29.961 39.8911C40.8724 39.8911 44.6204 37.851 45.3301 37.3187V26.8507C42.824 29.4676 36.459 29.6008 30.9146 29.7339H30.1383C24.9233 29.6413 19.7274 29.0771 14.614 28.0484V37.9173ZM27.4105 25.5423C32.4449 25.5423 38.4994 25.4091 39.2312 24.6107C39.165 24.5078 39.0734 24.4238 38.9651 24.3668C37.1687 23.1914 30.4932 22.5483 27.4105 23.014V25.5423Z" fill="#999999"/>
<path d="M18.2068 28.693C18.0597 28.693 17.9188 28.6346 17.8148 28.5306C17.7108 28.4266 17.6523 28.2856 17.6523 28.1386V22.5276C17.6523 22.3805 17.7108 22.2396 17.8148 22.1356C17.9188 22.0316 18.0597 21.9731 18.2068 21.9731C18.3538 21.9731 18.4949 22.0316 18.5989 22.1356C18.7029 22.2396 18.7612 22.3805 18.7612 22.5276V28.1386C18.7612 28.2856 18.7029 28.4266 18.5989 28.5306C18.4949 28.6346 18.3538 28.693 18.2068 28.693Z" fill="#999999"/>
<path d="M17.0979 33.8592C16.9509 33.8592 16.8099 33.8007 16.7059 33.6967C16.6019 33.5928 16.5435 33.4518 16.5435 33.3047V28.1374C16.5435 27.9904 16.6019 27.8491 16.7059 27.7452C16.8099 27.6412 16.9509 27.583 17.0979 27.583C17.2449 27.583 17.3861 27.6412 17.49 27.7452C17.594 27.8491 17.6523 27.9904 17.6523 28.1374V33.3047C17.6523 33.4518 17.594 33.5928 17.49 33.6967C17.3861 33.8007 17.2449 33.8592 17.0979 33.8592Z" fill="#999999"/>
<path d="M20.8459 34.2359C20.6989 34.2359 20.5579 34.1774 20.4539 34.0735C20.35 33.9695 20.2915 33.8285 20.2915 33.6815V28.5139C20.2915 28.3669 20.35 28.2259 20.4539 28.1219C20.5579 28.0179 20.6989 27.9595 20.8459 27.9595C20.993 27.9595 21.1341 28.0179 21.2381 28.1219C21.3421 28.2259 21.4004 28.3669 21.4004 28.5139V33.6815C21.4004 33.8285 21.3421 33.9695 21.2381 34.0735C21.1341 34.1774 20.993 34.2359 20.8459 34.2359Z" fill="#999999"/>
<path d="M24.572 34.7031C24.425 34.7031 24.2839 34.6446 24.1799 34.5407C24.0759 34.4367 24.0176 34.2957 24.0176 34.1487V28.9814C24.0436 28.8505 24.1141 28.7327 24.2172 28.6481C24.3204 28.5635 24.4496 28.5171 24.583 28.5171C24.7164 28.5171 24.8457 28.5635 24.9489 28.6481C25.052 28.7327 25.1225 28.8505 25.1485 28.9814V34.1487C25.1428 34.2977 25.0795 34.4386 24.972 34.542C24.8645 34.6454 24.7212 34.7032 24.572 34.7031Z" fill="#999999"/>
<path d="M28.0759 35.1021C27.9289 35.1021 27.7879 35.0437 27.6839 34.9397C27.5799 34.8357 27.5215 34.6947 27.5215 34.5477V29.3801C27.5215 29.2331 27.5799 29.0921 27.6839 28.9881C27.7879 28.8841 27.9289 28.8257 28.0759 28.8257C28.223 28.8257 28.3641 28.8841 28.4681 28.9881C28.572 29.0921 28.6304 29.2331 28.6304 29.3801V34.5477C28.6304 34.6947 28.572 34.8357 28.4681 34.9397C28.3641 35.0437 28.223 35.1021 28.0759 35.1021Z" fill="#999999"/>
<path d="M31.5798 34.9681C31.4328 34.9681 31.2918 34.9096 31.1878 34.8056C31.0838 34.7016 31.0254 34.5607 31.0254 34.4136V29.2463C31.0254 29.0993 31.0838 28.958 31.1878 28.8541C31.2918 28.7501 31.4328 28.6919 31.5798 28.6919C31.7269 28.6919 31.8679 28.7501 31.9718 28.8541C32.0758 28.958 32.1343 29.0993 32.1343 29.2463V34.4136C32.1343 34.5607 32.0758 34.7016 31.9718 34.8056C31.8679 34.9096 31.7269 34.9681 31.5798 34.9681Z" fill="#999999"/>
<path d="M34.9504 34.9681C34.8034 34.9681 34.6623 34.9096 34.5583 34.8056C34.4543 34.7016 34.396 34.5607 34.396 34.4136V29.2463C34.396 29.0993 34.4543 28.958 34.5583 28.8541C34.6623 28.7501 34.8034 28.6919 34.9504 28.6919C35.0975 28.6919 35.2385 28.7501 35.3424 28.8541C35.4464 28.958 35.5049 29.0993 35.5049 29.2463V34.4136C35.5049 34.5607 35.4464 34.7016 35.3424 34.8056C35.2385 34.9096 35.0975 34.9681 34.9504 34.9681Z" fill="#999999"/>
<path d="M38.3665 34.5025C38.2194 34.5025 38.0784 34.4441 37.9744 34.3401C37.8705 34.2361 37.812 34.0951 37.812 33.9481V28.7805C37.812 28.6335 37.8705 28.4925 37.9744 28.3885C38.0784 28.2845 38.2194 28.2261 38.3665 28.2261C38.5135 28.2261 38.6545 28.2845 38.7585 28.3885C38.8624 28.4925 38.9209 28.6335 38.9209 28.7805V33.9481C38.9209 34.0951 38.8624 34.2361 38.7585 34.3401C38.6545 34.4441 38.5135 34.5025 38.3665 34.5025Z" fill="#999999"/>
<path d="M41.5818 33.9933C41.4347 33.9933 41.2936 33.9348 41.1896 33.8308C41.0857 33.7269 41.0273 33.5859 41.0273 33.4388V28.3157C41.0273 28.1686 41.0857 28.0276 41.1896 27.9237C41.2936 27.8197 41.4347 27.7612 41.5818 27.7612C41.7288 27.7612 41.8698 27.8197 41.9738 27.9237C42.0778 28.0276 42.1362 28.1686 42.1362 28.3157V33.483C42.1251 33.6222 42.0617 33.7522 41.9589 33.8468C41.8561 33.9414 41.7215 33.9937 41.5818 33.9933Z" fill="#999999"/>
</svg>
