<svg width="61" height="60" viewBox="0 0 61 60" fill="none" xmlns="http://www.w3.org/2000/svg">
<circle cx="30.5049" cy="30" r="30" fill="#FAFAFA"/>
<path d="M31.1143 37.7478L31.1143 37.7478L31.1171 37.7448C31.1274 37.7335 31.1516 37.7092 31.1882 37.6723C31.5345 37.3232 32.9952 35.8509 34.43 33.6785C36.0156 31.2779 37.5828 28.0043 37.5828 24.4184C37.5828 22.5989 37.1335 20.7089 36.0385 19.27C34.9387 17.8249 33.1986 16.85 30.6549 16.85C28.1111 16.85 26.3711 17.8249 25.2713 19.27C24.1762 20.7089 23.727 22.5989 23.727 24.4184C23.727 27.9732 25.2838 31.2467 26.8642 33.6549C28.4352 36.0487 30.0397 37.603 30.199 37.7509C30.2581 37.8111 30.3287 37.8589 30.407 37.8912C30.4858 37.9236 30.5701 37.9394 30.6549 37.938C30.7396 37.9394 30.8239 37.9236 30.9027 37.8912C30.9819 37.8585 31.0543 37.8098 31.1143 37.7478ZM36.2497 24.4119L36.2496 24.4119V24.4184C36.2496 27.2325 35.1528 29.8969 33.8864 32.0341C32.6874 34.0575 31.3428 35.5976 30.6549 36.33C29.9669 35.5976 28.6223 34.0575 27.4234 32.0341C26.157 29.8969 25.0602 27.2325 25.0602 24.4184C25.0602 23.4671 25.1991 21.9025 25.9672 20.5805C26.728 19.2709 28.1146 18.1832 30.6549 18.1832C33.1956 18.1832 34.603 19.2714 35.374 20.5812C36.1518 21.9028 36.2904 23.4665 36.2497 24.4119Z" fill="#999999" stroke="#999999" stroke-width="0.3"/>
<path d="M28.2752 27.9595C28.9795 28.4301 29.8075 28.6813 30.6545 28.6813C31.7904 28.6813 32.8799 28.2303 33.6831 27.427C34.4863 26.6238 34.9374 25.5343 34.9374 24.3984C34.9374 23.5514 34.6865 22.7235 34.2159 22.0191C33.7453 21.3148 33.0761 20.7657 32.2935 20.4416C31.5109 20.1174 30.6499 20.0327 29.8191 20.1979C28.9883 20.3632 28.2254 20.7711 27.6264 21.3701C27.0275 21.969 26.6195 22.7322 26.4543 23.563C26.289 24.3938 26.3738 25.2548 26.6979 26.0374C27.0221 26.82 27.5709 27.4889 28.2752 27.9595ZM28.9639 21.8057C29.4651 21.4748 30.053 21.3004 30.6536 21.3043C31.4544 21.3095 32.2206 21.6313 32.7851 22.1994C33.3495 22.7675 33.6662 23.5358 33.6662 24.3366C33.6662 24.9372 33.4878 25.5241 33.1538 26.0232C32.8197 26.5223 32.3452 26.911 31.79 27.1399C31.2348 27.3688 30.6241 27.4277 30.0354 27.3091C29.4466 27.1905 28.9059 26.8997 28.4826 26.4737C28.0594 26.0477 27.7725 25.5054 27.6577 24.9159C27.543 24.3263 27.6055 23.7161 27.838 23.1625C28.0705 22.6088 28.4626 22.1365 28.9639 21.8057Z" fill="#999999" stroke="#999999" stroke-width="0.3"/>
<path d="M15.9549 43.1455L15.9549 43.1457H15.9628H45.3381C45.4545 43.159 45.5722 43.1424 45.6804 43.0974L45.6227 42.9589L45.6804 43.0974C45.7916 43.051 45.889 42.9762 45.9624 42.8802L45.9744 42.8644L45.9819 42.846C46.0555 42.6666 46.0566 42.4659 45.9852 42.2859L41.4414 26.3614L41.4411 26.3606C41.4007 26.222 41.3163 26.1004 41.201 26.0139C41.0857 25.9275 40.9456 25.8805 40.8012 25.8805H38.4245C38.2477 25.8805 38.0782 25.9508 37.9532 26.0758C37.8282 26.2008 37.7579 26.3703 37.7579 26.5471C37.7579 26.724 37.8282 26.8935 37.9532 27.0184C38.0782 27.1434 38.2477 27.2137 38.4245 27.2137H40.3778L44.549 41.8125H16.843L20.994 27.2137H22.6787C22.8555 27.2137 23.025 27.1434 23.15 27.0184C23.275 26.8935 23.3453 26.724 23.3453 26.5471C23.3453 26.3703 23.275 26.2008 23.15 26.0758C23.025 25.9508 22.8555 25.8805 22.6787 25.8805H20.6145C20.4688 25.8765 20.3258 25.9218 20.209 26.0094C20.092 26.0971 20.0085 26.222 19.9717 26.3631L15.4076 42.2858C15.3362 42.4658 15.3373 42.6666 15.4109 42.846L15.4197 42.8675L15.4346 42.8853C15.4986 42.9619 15.5774 43.0247 15.6672 43.0696C15.7569 43.1144 15.8551 43.1402 15.9549 43.1455Z" fill="#999999" stroke="#999999" stroke-width="0.3"/>
</svg>
