<svg width="61" height="60" viewBox="0 0 61 60" fill="none" xmlns="http://www.w3.org/2000/svg">
<circle cx="30.5049" cy="30" r="30" fill="#FAFAFA"/>
<path d="M40.3124 18.8036L38.0092 30.3022C37.8852 30.921 38.3585 31.4986 38.9897 31.4986H44.1183C44.7448 31.4986 45.217 30.929 45.101 30.3133L42.9332 18.8147C42.8441 18.3422 42.4314 18 41.9505 18H41.2929C40.8164 18 40.406 18.3363 40.3124 18.8036Z" stroke="#999999" stroke-width="1.5"/>
<path d="M32.8263 18.8062L30.5551 30.3048C30.433 30.9229 30.9061 31.4986 31.5362 31.4986H36.5661C37.1916 31.4986 37.6636 30.9308 37.5492 30.3158L35.4116 18.8172C35.3236 18.3435 34.9103 18 34.4285 18H33.8074C33.3298 18 32.9189 18.3377 32.8263 18.8062Z" stroke="#999999" stroke-width="1.5"/>
<path d="M20.9795 31.3369C20.9795 30.7846 21.4272 30.3369 21.9795 30.3369H45.2268C45.7791 30.3369 46.2268 30.7846 46.2268 31.3369V41.6771C46.2268 42.2294 45.7791 42.6771 45.2268 42.6771H21.9795C21.4272 42.6771 20.9795 42.2294 20.9795 41.6771V31.3369Z" fill="#F5F6F8" stroke="#999999" stroke-width="1.5"/>
<path d="M14.5049 26.4019C14.5049 25.8496 14.9526 25.4019 15.5049 25.4019H21.3496C21.9019 25.4019 22.3496 25.8496 22.3496 26.4019V42.6732H14.5049V26.4019Z" fill="#F5F6F8" stroke="#999999" stroke-width="1.5"/>
</svg>
