<svg width="61" height="60" viewBox="0 0 61 60" fill="none" xmlns="http://www.w3.org/2000/svg">
<circle cx="30.5049" cy="30" r="30" fill="#FAFAFA"/>
<path d="M48.9878 39.0154L48.9878 21C44.3903 21.0251 34.706 21.0754 32.7484 21.0754C30.7908 21.0754 30.3014 22.4322 30.3014 23.1106L30.3014 27.0303C30.3014 27.7539 29.5104 27.8845 29.1149 27.8594C25.4073 27.4071 17.6509 26.5026 16.2865 26.5026C14.581 26.5026 12.5048 26.578 12.5048 30.4223C12.5048 33.4977 15.0259 34.0153 16.2865 33.8897C20.2413 33.362 28.3437 32.3067 29.1149 32.3067C29.8861 32.3067 30.2272 32.8595 30.3014 33.1359L30.3014 36.6787C30.3014 38.4877 31.9327 39.141 32.7484 39.2415L48.9878 39.0154Z" stroke="#999999" stroke-width="1.5" stroke-linejoin="round"/>
<line x1="36.2256" y1="21" x2="36.2256" y2="39.2415" stroke="#999999" stroke-width="1.5"/>
<path d="M48.9878 26.9858C49.402 26.9858 49.7378 26.6501 49.7378 26.2358C49.7378 25.8216 49.402 25.4858 48.9878 25.4858L48.9878 26.9858ZM48.9878 25.4858L42.9073 25.4858L42.9073 26.9858L48.9878 26.9858L48.9878 25.4858Z" fill="#999999"/>
<path d="M48.9878 31.04C49.402 31.04 49.7378 30.7043 49.7378 30.29C49.7378 29.8758 49.402 29.54 48.9878 29.54L48.9878 31.04ZM48.9878 29.54L42.9073 29.54L42.9073 31.04L48.9878 31.04L48.9878 29.54Z" fill="#999999"/>
<path d="M48.9878 35.769C49.402 35.769 49.7378 35.4333 49.7378 35.019C49.7378 34.6048 49.402 34.269 48.9878 34.269L48.9878 35.769ZM48.9878 34.269L42.9073 34.269L42.9073 35.769L48.9878 35.769L48.9878 34.269Z" fill="#999999"/>
</svg>
