<svg width="100" height="100" viewBox="0 0 100 100" fill="none" xmlns="http://www.w3.org/2000/svg">
<circle cx="50" cy="50" r="50" fill="#C8020A"/>
<g clip-path="url(#clip0_498_3187)">
<path d="M38.8383 56.6136C39.0693 56.8456 39.2464 57.1256 39.3568 57.4338C39.4672 57.742 39.5083 58.0708 39.4771 58.3967C39.3207 59.905 39.0241 61.3954 38.5912 62.8487C41.6965 62.1297 43.5931 61.2972 44.4545 60.8609C44.9431 60.6134 45.5058 60.5548 46.035 60.6962C47.5519 61.1006 49.1153 61.3041 50.6852 61.3016C59.5804 61.3016 66.2674 55.0532 66.2674 47.9455C66.2674 40.84 59.5804 34.5893 50.6852 34.5893C41.79 34.5893 35.103 40.84 35.103 47.9455C35.103 51.2133 36.4764 54.2451 38.8383 56.6136ZM37.7408 65.3063C37.2134 65.4108 36.6843 65.5065 36.1537 65.5934C35.7085 65.6647 35.3701 65.2016 35.546 64.7876C35.7436 64.3215 35.9248 63.8485 36.0891 63.3696L36.0958 63.3474C36.6478 61.7446 37.0975 59.9015 37.2622 58.1852C34.5309 55.4472 32.877 51.8633 32.877 47.9455C32.877 39.3397 40.8506 32.3633 50.6852 32.3633C60.5198 32.3633 68.4934 39.3397 68.4934 47.9455C68.4934 56.5513 60.5198 63.5277 50.6852 63.5277C48.9214 63.53 47.1649 63.301 45.4607 62.8465C44.3032 63.4319 41.8122 64.4982 37.7408 65.3063Z" fill="white"/>
</g>
<defs>
<clipPath id="clip0_498_3187">
<rect width="35.6164" height="35.6164" fill="white" transform="translate(32.877 30.1372)"/>
</clipPath>
</defs>
</svg>
