<svg width="145" height="24" viewBox="0 0 145 24" fill="none" xmlns="http://www.w3.org/2000/svg">
<path d="M5.83017 11.7099H10.6224L8.30479 4.44438L5.83017 11.7099ZM16.6616 15.4532C16.809 15.8989 17.4109 16.1214 18.466 16.1214V17.9497H9.52982V16.1214H11.2455C11.6762 16.1214 11.8925 15.9876 11.8925 15.7201C11.8925 15.6614 11.8707 15.5727 11.8256 15.4532L11.2005 13.67H5.18524L4.62698 15.2758C4.5833 15.3939 4.5601 15.4901 4.5601 15.5652C4.5601 15.9364 4.89451 16.1214 5.56264 16.1214H6.83408V17.9497H0.528087L0.504883 16.1214C1.14367 16.1214 1.60843 16.0668 1.89711 15.9549C2.18784 15.8429 2.3687 15.6846 2.44309 15.4764L7.43601 1.39171H11.9376L16.6616 15.4532Z" fill="white"/>
<path d="M25.0167 15.1204C25.0167 15.7885 25.6493 16.1216 26.9112 16.1216V17.9492H19.0444V16.1216C20.3084 16.1216 20.9396 15.7885 20.9396 15.1204V3.57375C20.9396 2.90698 20.3084 2.57325 19.0444 2.57325V0.789967H25.0167V15.1204Z" fill="white"/>
<path d="M35.0011 8.54522C34.0812 8.54522 33.4417 8.8687 33.0847 9.515C32.7285 10.162 32.5497 11.1379 32.5497 12.4455C32.5497 13.7524 32.7285 14.7331 33.0847 15.3863C33.4417 16.0407 34.0812 16.367 35.0011 16.367C35.9368 16.367 36.6022 16.0407 36.9953 15.3863C37.3891 14.7331 37.5863 13.7524 37.5863 12.4455C37.5863 11.1379 37.3891 10.162 36.9953 9.515C36.6022 8.8687 35.9368 8.54522 35.0011 8.54522ZM32.2392 8.4565C32.6091 7.69828 33.1796 7.13865 33.9501 6.77285C34.7213 6.4091 35.5949 6.22756 36.5742 6.22756C37.2846 6.22756 37.9514 6.33948 38.5745 6.56197C39.1962 6.78582 39.7347 7.14138 40.1865 7.63139C40.6376 8.12209 40.9979 8.75064 41.2641 9.515C41.5316 10.28 41.6647 11.2048 41.6647 12.2899C41.6647 13.403 41.5207 14.3462 41.2314 15.1187C40.942 15.8913 40.5455 16.5192 40.0425 17.003C39.5388 17.4848 38.9444 17.8377 38.264 18.0615C37.5815 18.284 36.8554 18.3959 36.0862 18.3959C35.4174 18.3959 34.8039 18.3099 34.2408 18.1393C33.6764 17.968 33.2185 17.7114 32.8623 17.3695V20.4229C32.8623 21.091 33.6567 21.4254 35.2468 21.4254V23.208H26.8682V21.4254C28.1444 21.4254 28.7852 21.091 28.7852 20.4229V9.4372C28.7852 8.75337 28.1444 8.41145 26.8682 8.41145V6.60701H32.0822L32.2392 8.4565Z" fill="white"/>
<path d="M48.2369 8.87924C48.7576 8.07734 49.4183 7.46176 50.2202 7.02976C51.0227 6.59912 51.9598 6.38414 53.0292 6.38414C54.1873 6.38414 55.0643 6.64689 55.6581 7.17239C56.2518 7.69926 56.55 8.54005 56.55 9.69684V15.1218C56.55 15.7885 57.1888 16.1216 58.4664 16.1216V17.9492H51.2227V16.1216C52.056 16.1216 52.4709 15.7885 52.4709 15.1218V11.5231C52.4709 10.5909 52.3563 9.90976 52.1263 9.47913C51.8963 9.05054 51.551 8.83556 51.0896 8.83556C50.4658 8.83556 49.8974 9.08261 49.3855 9.57877C48.873 10.0763 48.4901 10.7458 48.2369 11.59V15.1218C48.2369 15.7885 48.6532 16.1216 49.4851 16.1216V17.9492H42.2646V16.1216C43.5286 16.1216 44.1599 15.7885 44.1599 15.1204V3.57375C44.1599 2.90698 43.5361 2.57257 42.2879 2.57257V0.789967H48.2369V8.87924Z" fill="white"/>
<path d="M67.1339 11.7986C66.4358 12.0968 65.8161 12.3411 65.2735 12.5336C64.731 12.7281 64.271 12.9206 63.8929 13.1137C63.5135 13.3061 63.2275 13.5259 63.035 13.7709C62.8405 14.0166 62.7443 14.3462 62.7443 14.7632C62.7443 15.1502 62.8781 15.4689 63.1449 15.7207C63.4125 15.9739 63.8369 16.0995 64.415 16.0995C65.0401 16.0995 65.5854 15.9364 66.0536 15.6102C66.5218 15.2839 66.8821 14.8751 67.1339 14.3838V11.7986ZM70.9674 15.4313C70.9674 16.0544 71.183 16.367 71.6137 16.367C71.8218 16.367 71.9774 16.2756 72.0818 16.0886C72.1856 15.9036 72.2374 15.6845 72.2374 15.4313V14.295H73.5307V15.0082C73.5307 15.632 73.4372 16.1418 73.2523 16.5349C73.0659 16.928 72.825 17.244 72.5282 17.4815C72.2313 17.7197 71.8955 17.8828 71.5249 17.9715C71.1537 18.0616 70.7824 18.1053 70.4105 18.1053C69.4891 18.1053 68.8094 17.8937 68.3713 17.4706C67.9331 17.0461 67.639 16.5083 67.4916 15.8538C67.3578 16.1821 67.1653 16.4933 66.9115 16.7915C66.6596 17.0884 66.3477 17.3511 65.9758 17.5811C65.6045 17.8125 65.1739 17.9947 64.6839 18.1285C64.1932 18.2622 63.6424 18.3291 63.035 18.3291C61.6531 18.3291 60.6457 18.0425 60.0145 17.4706C59.3832 16.8987 59.0679 16.137 59.0679 15.1857C59.0679 14.5919 59.1723 14.1026 59.3804 13.7149C59.5872 13.33 59.8732 13.0141 60.2369 12.7684C60.6021 12.5227 61.0361 12.3302 61.5411 12.189C62.0462 12.047 62.5962 11.9139 63.1907 11.7877C63.7844 11.6621 64.415 11.5311 65.0852 11.3973C65.7533 11.2635 66.4283 11.0868 67.1121 10.8629V10.1729C67.1121 9.86038 67.0671 9.55531 66.9783 9.25844C66.8896 8.96157 66.7483 8.69745 66.5559 8.46746C66.3614 8.23747 66.113 8.05252 65.8079 7.91125C65.5035 7.7693 65.1446 7.69764 64.7276 7.69764C64.1045 7.69764 63.5838 7.7536 63.1688 7.86553C62.7518 7.97745 62.3806 8.14397 62.0543 8.36782C62.4099 8.39717 62.7177 8.50159 62.9791 8.67903C63.2384 8.85783 63.3688 9.14652 63.3688 9.54781C63.3688 10.0092 63.2166 10.3763 62.9122 10.6514C62.6071 10.9264 62.1581 11.0636 61.563 11.0636C60.3755 11.0636 59.7817 10.4835 59.7817 9.32532C59.7817 8.91038 59.9025 8.50773 60.1482 8.12213C60.3939 7.73518 60.7502 7.39804 61.2176 7.10867C61.6858 6.81794 62.2625 6.58795 62.945 6.41733C63.6288 6.24603 64.4089 6.16073 65.2858 6.16073C65.9683 6.16073 66.6521 6.2242 67.336 6.35045C68.0184 6.47603 68.6279 6.69237 69.1622 6.99675C69.6973 7.30181 70.1327 7.71811 70.4664 8.24498C70.8008 8.77184 70.9674 9.43725 70.9674 10.2391V15.4313Z" fill="white"/>
<path d="M90.9125 8.21091L88.9723 8.27779C88.8979 6.59893 88.6351 5.41144 88.1813 4.71191C87.7288 4.01374 87.0716 3.66569 86.2103 3.66569H84.6946V15.097C84.6946 15.7808 85.3634 16.1214 86.6997 16.1214V17.9497H78.1647V16.1214C79.4874 16.1214 80.148 15.7808 80.148 15.097V3.66569H78.6104C77.7498 3.66569 77.0953 4.01374 76.6504 4.71191C76.2047 5.41144 75.9372 6.59893 75.8471 8.27779L73.9082 8.21091V1.39171H90.9125V8.21091Z" fill="white"/>
<path d="M99.5581 10.7742C99.5581 10.4029 99.513 10.031 99.4243 9.65973C99.3356 9.28847 99.2018 8.95679 99.023 8.66811C98.8449 8.37874 98.6142 8.14397 98.333 7.96517C98.0505 7.78841 97.7086 7.69764 97.3073 7.69764C96.6392 7.69764 96.0966 7.94333 95.681 8.4347C95.2647 8.92472 95.0128 9.70477 94.9228 10.7742H99.5581ZM94.8791 12.3118C94.9084 13.6638 95.1391 14.6772 95.5691 15.3535C95.9997 16.0299 96.6842 16.367 97.6199 16.367C98.333 16.367 98.9752 16.1773 99.5471 15.7999C100.119 15.4204 100.502 14.8451 100.694 14.0726L102.566 14.2732C102.462 14.7926 102.28 15.2942 102.02 15.7767C101.76 16.2599 101.416 16.6905 100.985 17.07C100.553 17.4474 100.029 17.7524 99.4134 17.9838C98.7964 18.2138 98.0874 18.3291 97.2855 18.3291C96.4385 18.3291 95.625 18.2308 94.845 18.0384C94.0649 17.8452 93.3777 17.5142 92.7839 17.0461C92.1902 16.5786 91.7172 15.9582 91.3692 15.1857C91.0197 14.4145 90.8457 13.4399 90.8457 12.2668C90.8457 11.3304 90.9822 10.4882 91.2572 9.73753C91.5323 8.98818 91.937 8.34462 92.4713 7.80956C93.0064 7.27519 93.6602 6.8664 94.4327 6.58522C95.2053 6.302 96.0966 6.16073 97.1066 6.16073C99.0981 6.16073 100.572 6.6521 101.53 7.63144C102.488 8.61215 102.967 10.1729 102.967 12.3118H94.8791Z" fill="white"/>
<path d="M118.009 15.1218C118.009 15.7885 118.648 16.1216 119.926 16.1216V17.9492H112.662V16.1216C113.508 16.1216 113.932 15.7885 113.932 15.1218V11.6118C113.932 10.6789 113.805 9.99849 113.553 9.56921C113.3 9.13858 112.943 8.92428 112.483 8.92428C111.86 8.92428 111.28 9.16792 110.745 9.65793C110.211 10.1459 109.816 10.8127 109.564 11.6569V15.1218C109.564 15.7885 109.979 16.1216 110.812 16.1216V17.9492H103.592V16.1216C104.854 16.1216 105.485 15.7885 105.485 15.1218V9.38904C105.485 8.72227 104.862 8.38923 103.613 8.38923V6.60663H109.564L109.572 8.87924C110.093 8.07734 110.761 7.46176 111.581 7.02907C112.398 6.59844 113.351 6.38414 114.437 6.38414C115.598 6.38414 116.485 6.64689 117.094 7.17239C117.705 7.69926 118.009 8.54005 118.009 9.69684V15.1218Z" fill="white"/>
<path d="M126.054 6.60679H128.972L128.861 8.50131C128.444 8.41123 128.006 8.34912 127.546 8.31227C127.085 8.27474 126.589 8.25631 126.054 8.25631V15.3642C126.054 15.7068 126.116 15.9586 126.243 16.1217C126.369 16.2862 126.589 16.3674 126.901 16.3674C127.212 16.3674 127.427 16.2787 127.546 16.0999C127.666 15.9211 127.725 15.6768 127.725 15.3642V14.2948H129.039V14.9854C129.039 15.4611 128.983 15.8883 128.871 16.2678C128.762 16.6452 128.575 16.9735 128.315 17.2471C128.056 17.5222 127.714 17.7351 127.29 17.8825C126.866 18.0306 126.35 18.105 125.741 18.105C124.359 18.105 123.386 17.8129 122.822 17.2253C122.258 16.639 121.974 15.8399 121.974 14.8298V8.25631H120.058V6.89615C120.459 6.86612 120.857 6.80743 121.25 6.71871C121.643 6.62863 121.994 6.47302 122.298 6.25054C122.603 6.02669 122.848 5.71617 123.033 5.31351C123.22 4.91222 123.311 4.39355 123.311 3.75408V3.26475L126.054 3.10778V6.60679Z" fill="white"/>
<path d="M137.948 7.06388H138.134C138.597 7.06388 138.829 6.66464 138.829 6.20944C138.829 5.75491 138.653 5.41231 138.207 5.39389C138.115 5.39389 138.003 5.40276 137.948 5.43074V7.06388ZM136.519 4.4009C136.937 4.32651 137.466 4.2801 137.976 4.2801C138.663 4.2801 139.321 4.36405 139.757 4.75305C140.165 5.11544 140.277 5.53243 140.277 6.08932C140.277 6.70149 139.97 7.33277 139.33 7.62965V7.64807C139.739 7.83302 139.942 8.20497 140.054 8.81714C140.165 9.43887 140.351 10.3206 140.472 10.5615H138.968C138.894 10.3943 138.745 9.74529 138.663 9.08603C138.57 8.34419 138.403 8.16743 138.087 8.16743H137.948V10.5615H136.519V4.4009Z" fill="white"/>
<path d="M138.182 2.7407C135.449 2.7407 133.225 4.96486 133.225 7.69814C133.225 10.4321 135.449 12.6556 138.182 12.6556C140.916 12.6556 143.14 10.4321 143.14 7.69814C143.14 4.96486 140.916 2.7407 138.182 2.7407ZM138.182 14.0205C134.696 14.0205 131.86 11.1849 131.86 7.69814C131.86 4.2121 134.696 1.37577 138.182 1.37577C141.668 1.37577 144.505 4.2121 144.505 7.69814C144.505 11.1849 141.668 14.0205 138.182 14.0205Z" fill="white"/>
</svg>
