<svg width="205" height="32" viewBox="0 0 205 32" fill="none" xmlns="http://www.w3.org/2000/svg">
<path d="M8.04904 15.4699H14.8381L11.5548 5.17702L8.04904 15.4699ZM23.3936 20.7729C23.6024 21.4043 24.4551 21.7194 25.9498 21.7194V24.3096H13.2902V21.7194H15.7208C16.3309 21.7194 16.6374 21.5299 16.6374 21.1509C16.6374 21.0678 16.6064 20.9421 16.5426 20.7729L15.657 18.2466H7.13539L6.34452 20.5215C6.28264 20.6888 6.24977 20.8251 6.24977 20.9315C6.24977 21.4574 6.72352 21.7194 7.67004 21.7194H9.47124V24.3096H0.537755L0.504883 21.7194C1.40983 21.7194 2.06824 21.6421 2.47721 21.4835C2.88908 21.325 3.14529 21.1007 3.25067 20.8058L10.324 0.852402H16.7012L23.3936 20.7729Z" fill="#C8020A"/>
<path d="M35.2297 20.3016C35.2297 21.2481 36.126 21.7199 37.9137 21.7199V24.3091H26.769V21.7199C28.5596 21.7199 29.4539 21.2481 29.4539 20.3016V3.94383C29.4539 2.99924 28.5596 2.52646 26.769 2.52646V0.000141144H35.2297V20.3016Z" fill="#C8020A"/>
<path d="M49.3742 10.9865C48.0709 10.9865 47.165 11.4448 46.6594 12.3604C46.1547 13.2769 45.9014 14.6595 45.9014 16.5119C45.9014 18.3634 46.1547 19.7527 46.6594 20.678C47.165 21.6052 48.0709 22.0673 49.3742 22.0673C50.6997 22.0673 51.6424 21.6052 52.1993 20.678C52.7571 19.7527 53.0366 18.3634 53.0366 16.5119C53.0366 14.6595 52.7571 13.2769 52.1993 12.3604C51.6424 11.4448 50.6997 10.9865 49.3742 10.9865ZM45.4615 10.8608C45.9855 9.78667 46.7938 8.99387 47.8853 8.47565C48.9778 7.96033 50.2154 7.70316 51.6028 7.70316C52.6092 7.70316 53.5538 7.86172 54.4365 8.1769C55.3173 8.49402 56.0801 8.99774 56.7202 9.69192C57.3592 10.3871 57.8697 11.2775 58.2468 12.3604C58.6258 13.4442 58.8143 14.7542 58.8143 16.2915C58.8143 17.8684 58.6103 19.2045 58.2004 20.299C57.7905 21.3934 57.2287 22.2829 56.5162 22.9684C55.8027 23.651 54.9606 24.1508 53.9966 24.4679C53.0298 24.7831 52.0011 24.9417 50.9115 24.9417C49.964 24.9417 49.0948 24.8199 48.2972 24.5782C47.4976 24.3355 46.8489 23.972 46.3442 23.4876V27.8132C46.3442 28.7597 47.4696 29.2334 49.7223 29.2334V31.7588H37.8525V29.2334C39.6605 29.2334 40.5684 28.7597 40.5684 27.8132V12.2501C40.5684 11.2814 39.6605 10.797 37.8525 10.797V8.24071H45.2391L45.4615 10.8608Z" fill="#C8020A"/>
<path d="M68.1253 11.4599C68.8629 10.3239 69.7988 9.45185 70.9349 8.83984C72.0718 8.22978 73.3993 7.92523 74.9143 7.92523C76.555 7.92523 77.7974 8.29745 78.6385 9.04191C79.4797 9.7883 79.9022 10.9794 79.9022 12.6182V20.3035C79.9022 21.2481 80.8071 21.7199 82.617 21.7199V24.3091H72.3551V21.7199C73.5356 21.7199 74.1235 21.2481 74.1235 20.3035V15.2054C74.1235 13.8847 73.961 12.9199 73.6352 12.3098C73.3094 11.7026 72.8202 11.3981 72.1666 11.3981C71.2829 11.3981 70.4775 11.7481 69.7524 12.4509C69.0263 13.1558 68.484 14.1042 68.1253 15.3002V20.3035C68.1253 21.2481 68.715 21.7199 69.8936 21.7199V24.3091H59.6646V21.7199C61.4551 21.7199 62.3494 21.2481 62.3494 20.3016V3.94383C62.3494 2.99924 61.4658 2.52549 59.6974 2.52549V0.000141144H68.1253V11.4599Z" fill="#C8020A"/>
<path d="M94.8962 15.5956C93.9071 16.0181 93.0292 16.3642 92.2606 16.6369C91.492 16.9124 90.8403 17.1851 90.3047 17.4587C89.7672 17.7313 89.3621 18.0426 89.0894 18.3897C88.8139 18.7378 88.6775 19.2048 88.6775 19.7955C88.6775 20.3437 88.867 20.7952 89.2451 21.152C89.6241 21.5106 90.2254 21.6885 91.0443 21.6885C91.9299 21.6885 92.7024 21.4575 93.3657 20.9953C94.0289 20.5332 94.5394 19.9541 94.8962 19.2579V15.5956ZM100.327 20.742C100.327 21.6247 100.632 22.0675 101.242 22.0675C101.537 22.0675 101.758 21.938 101.906 21.6731C102.053 21.4111 102.126 21.1007 102.126 20.742V19.1323H103.958V20.1426C103.958 21.0263 103.826 21.7485 103.564 22.3054C103.3 22.8623 102.959 23.3099 102.538 23.6464C102.117 23.9838 101.642 24.2149 101.117 24.3406C100.591 24.4682 100.065 24.53 99.5379 24.53C98.2327 24.53 97.2697 24.2303 96.649 23.6309C96.0283 23.0295 95.6116 22.2677 95.4028 21.3405C95.2133 21.8055 94.9406 22.2464 94.581 22.6689C94.2242 23.0895 93.7824 23.4617 93.2555 23.7875C92.7295 24.1153 92.1194 24.3734 91.4253 24.5629C90.7301 24.7524 89.9499 24.8472 89.0894 24.8472C87.1316 24.8472 85.7045 24.4411 84.8102 23.6309C83.9159 22.8207 83.4692 21.7417 83.4692 20.394C83.4692 19.5528 83.6172 18.8596 83.912 18.3104C84.205 17.7652 84.6101 17.3175 85.1254 16.9695C85.6427 16.6214 86.2576 16.3488 86.973 16.1486C87.6885 15.9475 88.4677 15.759 89.3098 15.5801C90.151 15.4022 91.0443 15.2166 91.9938 15.0271C92.9403 14.8376 93.8965 14.5872 94.8652 14.2701V13.2926C94.8652 12.8498 94.8014 12.4176 94.6757 11.9971C94.55 11.5765 94.3499 11.2023 94.0773 10.8765C93.8017 10.5507 93.4498 10.2887 93.0176 10.0885C92.5864 9.88745 92.0779 9.78593 91.4871 9.78593C90.6044 9.78593 89.8667 9.86521 89.2789 10.0238C88.6882 10.1823 88.1622 10.4182 87.7001 10.7354C88.2038 10.7769 88.6398 10.9249 89.0101 11.1762C89.3775 11.4295 89.5622 11.8385 89.5622 12.407C89.5622 13.0606 89.3466 13.5807 88.9154 13.9704C88.4832 14.36 87.847 14.5543 87.004 14.5543C85.3217 14.5543 84.4805 13.7325 84.4805 12.0918C84.4805 11.504 84.6517 10.9336 84.9997 10.3873C85.3478 9.83911 85.8525 9.36149 86.5147 8.95156C87.178 8.53969 87.995 8.21387 88.9618 7.97216C89.9305 7.72949 91.0356 7.60863 92.278 7.60863C93.2448 7.60863 94.2136 7.69855 95.1824 7.87741C96.1492 8.05531 97.0126 8.36179 97.7696 8.793C98.5276 9.22517 99.1444 9.81493 99.6172 10.5613C100.091 11.3077 100.327 12.2504 100.327 13.3864V20.742Z" fill="#C8020A"/>
<path d="M128.582 10.5129L125.833 10.6077C125.728 8.2293 125.356 6.54702 124.713 5.55602C124.072 4.56695 123.141 4.07387 121.921 4.07387H119.773V20.2682C119.773 21.237 120.721 21.7194 122.614 21.7194V24.3096H110.523V21.7194C112.396 21.7194 113.332 21.237 113.332 20.2682V4.07387H111.154C109.935 4.07387 109.008 4.56695 108.377 5.55602C107.746 6.54702 107.367 8.2293 107.239 10.6077L104.493 10.5129V0.852402H128.582V10.5129Z" fill="#C8020A"/>
<path d="M140.83 14.1444C140.83 13.6184 140.767 13.0915 140.641 12.5656C140.515 12.0396 140.326 11.5697 140.072 11.1608C139.82 10.7508 139.493 10.4182 139.095 10.1649C138.695 9.91452 138.21 9.78593 137.642 9.78593C136.695 9.78593 135.927 10.134 135.338 10.8301C134.748 11.5243 134.391 12.6294 134.264 14.1444H140.83ZM134.202 16.3227C134.243 18.2379 134.57 19.6737 135.179 20.6318C135.789 21.5899 136.759 22.0675 138.085 22.0675C139.095 22.0675 140.005 21.7988 140.815 21.2641C141.625 20.7265 142.167 19.9115 142.44 18.8171L145.091 19.1013C144.944 19.8371 144.686 20.5477 144.319 21.2312C143.95 21.9157 143.462 22.5258 142.852 23.0634C142.24 23.598 141.497 24.0302 140.625 24.358C139.751 24.6838 138.747 24.8472 137.611 24.8472C136.411 24.8472 135.258 24.7079 134.153 24.4353C133.048 24.1617 132.075 23.6928 131.234 23.0295C130.392 22.3673 129.722 21.4884 129.229 20.394C128.734 19.3014 128.488 17.9208 128.488 16.2588C128.488 14.9324 128.681 13.7393 129.071 12.6758C129.46 11.6142 130.034 10.7025 130.791 9.94449C131.549 9.18746 132.475 8.60833 133.569 8.21C134.664 7.80877 135.927 7.60863 137.357 7.60863C140.179 7.60863 142.266 8.30475 143.624 9.69215C144.981 11.0815 145.66 13.2926 145.66 16.3227H134.202Z" fill="#C8020A"/>
<path d="M166.97 20.3035C166.97 21.2481 167.875 21.7199 169.684 21.7199V24.3091H159.395V21.7199C160.592 21.7199 161.194 21.2481 161.194 20.3035V15.3311C161.194 14.0095 161.013 13.0455 160.656 12.4374C160.298 11.8273 159.793 11.5238 159.141 11.5238C158.258 11.5238 157.437 11.8689 156.679 12.5631C155.922 13.2544 155.362 14.199 155.005 15.3949V20.3035C155.005 21.2481 155.594 21.7199 156.773 21.7199V24.3091H146.545V21.7199C148.333 21.7199 149.227 21.2481 149.227 20.3035V12.1822C149.227 11.2376 148.344 10.7658 146.575 10.7658V8.24041H155.005L155.017 11.4599C155.754 10.3239 156.701 9.45185 157.862 8.83888C159.02 8.22881 160.37 7.92522 161.909 7.92522C163.554 7.92522 164.81 8.29745 165.672 9.04191C166.538 9.7883 166.97 10.9794 166.97 12.6182V20.3035Z" fill="#C8020A"/>
<path d="M178.366 8.24019H182.501L182.342 10.9241C181.752 10.7965 181.132 10.7085 180.48 10.6563C179.827 10.6031 179.124 10.577 178.366 10.577V20.6465C178.366 21.1319 178.454 21.4886 178.634 21.7197C178.812 21.9527 179.124 22.0678 179.565 22.0678C180.006 22.0678 180.312 21.9421 180.48 21.6888C180.649 21.4354 180.733 21.0893 180.733 20.6465V19.1315H182.596V20.1099C182.596 20.7838 182.516 21.389 182.358 21.9266C182.202 22.4613 181.937 22.9263 181.57 23.314C181.202 23.7036 180.718 24.0053 180.117 24.2141C179.517 24.4239 178.786 24.5293 177.923 24.5293C175.965 24.5293 174.587 24.1155 173.788 23.2831C172.988 22.4526 172.587 21.3204 172.587 19.8895V10.577H169.872V8.65012C170.441 8.60758 171.004 8.52444 171.561 8.39875C172.118 8.27113 172.614 8.05069 173.045 7.73551C173.477 7.41839 173.824 6.97848 174.086 6.40805C174.351 5.83956 174.481 5.10477 174.481 4.19885V3.50564L178.366 3.28327V8.24019Z" fill="#C8020A"/>
<path d="M195.216 8.88778H195.479C196.136 8.88778 196.465 8.32219 196.465 7.67732C196.465 7.03341 196.215 6.54806 195.584 6.52196C195.453 6.52196 195.295 6.53453 195.216 6.57417V8.88778ZM193.192 5.11522C193.784 5.00984 194.533 4.94409 195.256 4.94409C196.229 4.94409 197.162 5.06301 197.779 5.61411C198.358 6.12749 198.515 6.71822 198.515 7.50715C198.515 8.3744 198.081 9.26871 197.174 9.68928V9.71539C197.753 9.9774 198.042 10.5043 198.2 11.3716C198.358 12.2523 198.621 13.5015 198.792 13.8428H196.662C196.556 13.6059 196.346 12.6864 196.229 11.7525C196.097 10.7016 195.86 10.4511 195.414 10.4511H195.216V13.8428H193.192V5.11522Z" fill="#C8020A"/>
<path d="M195.548 2.76344C191.676 2.76344 188.525 5.91433 188.525 9.78648C188.525 13.6596 191.676 16.8095 195.548 16.8095C199.42 16.8095 202.571 13.6596 202.571 9.78648C202.571 5.91433 199.42 2.76344 195.548 2.76344ZM195.548 18.7432C190.609 18.7432 186.591 14.726 186.591 9.78648C186.591 4.84792 190.609 0.829786 195.548 0.829786C200.487 0.829786 204.505 4.84792 204.505 9.78648C204.505 14.726 200.487 18.7432 195.548 18.7432Z" fill="#C8020A"/>
</svg>
