<svg width="15" height="16" viewBox="0 0 15 16" fill="none" xmlns="http://www.w3.org/2000/svg">
<path fill-rule="evenodd" clip-rule="evenodd" d="M1.75751 1.75751C1.20031 2.31471 0.758315 2.9762 0.456762 3.70421C0.155208 4.43223 5.87104e-09 5.21251 0 6.00051C-5.87104e-09 6.78851 0.155208 7.56879 0.456761 8.2968C0.758315 9.02482 1.20031 9.68631 1.75751 10.2435C2.31471 10.8007 2.9762 11.2427 3.70421 11.5443C4.43223 11.8458 5.21251 12.001 6.00051 12.001C6.78851 12.001 7.56879 11.8458 8.2968 11.5443C9.02482 11.2427 9.68631 10.8007 10.2435 10.2435C11.3688 9.11819 12.001 7.59194 12.001 6.00051C12.001 4.40907 11.3688 2.88282 10.2435 1.75751C9.11819 0.632195 7.59194 1.18571e-08 6.00051 0C4.40907 -1.18571e-08 2.88282 0.632195 1.75751 1.75751ZM8.82951 8.82951C8.46052 9.21155 8.01914 9.51628 7.53113 9.72591C7.04311 9.93555 6.51823 10.0459 5.98711 10.0505C5.456 10.0551 4.92928 9.95392 4.43769 9.7528C3.94611 9.55167 3.4995 9.25466 3.12393 8.87909C2.74836 8.50352 2.45135 8.05691 2.25022 7.56532C2.0491 7.07374 1.94789 6.54702 1.95251 6.0159C1.95712 5.48479 2.06747 4.95991 2.2771 4.47189C2.48674 3.98387 2.79147 3.5425 3.17351 3.17351C3.92792 2.44488 4.93833 2.0417 5.98711 2.05081C7.0359 2.05993 8.03915 2.4806 8.78078 3.22223C9.52242 3.96387 9.94309 4.96712 9.9522 6.0159C9.96132 7.06469 9.55814 8.0751 8.82951 8.82951Z" fill="white"/>
<path d="M8.83042 11.6575C8.56194 11.3738 8.41472 10.9965 8.42006 10.606C8.4254 10.2154 8.58288 9.84232 8.85901 9.56605C9.13514 9.28979 9.50815 9.13214 9.89871 9.12661C10.2893 9.12109 10.6666 9.26814 10.9504 9.53648L14.4864 13.0715C14.6321 13.2092 14.7487 13.3748 14.8293 13.5583C14.9099 13.7419 14.9529 13.9398 14.9558 14.1403C14.9586 14.3407 14.9212 14.5397 14.8458 14.7255C14.7704 14.9113 14.6586 15.0801 14.5168 15.2219C14.3751 15.3637 14.2064 15.4756 14.0206 15.5511C13.8349 15.6266 13.6359 15.6641 13.4354 15.6613C13.2349 15.6586 13.0371 15.6157 12.8534 15.5352C12.6698 15.4546 12.5042 15.3381 12.3664 15.1925L8.82942 11.6575H8.83042Z" fill="white"/>
<path d="M4.13672 7.09375C3.8715 7.09375 3.61715 6.98839 3.42961 6.80086C3.24208 6.61332 3.13672 6.35897 3.13672 6.09375C3.13672 5.82853 3.24208 5.57418 3.42961 5.38664C3.61715 5.19911 3.8715 5.09375 4.13672 5.09375H8.13672C8.40194 5.09375 8.65629 5.19911 8.84383 5.38664C9.03136 5.57418 9.13672 5.82853 9.13672 6.09375C9.13672 6.35897 9.03136 6.61332 8.84383 6.80086C8.65629 6.98839 8.40194 7.09375 8.13672 7.09375H4.13672Z" fill="white"/>
<path d="M5.13672 4.09375C5.13672 3.82853 5.24208 3.57418 5.42961 3.38664C5.61715 3.19911 5.8715 3.09375 6.13672 3.09375C6.40194 3.09375 6.65629 3.19911 6.84383 3.38664C7.03136 3.57418 7.13672 3.82853 7.13672 4.09375V8.09375C7.13672 8.35897 7.03136 8.61332 6.84383 8.80086C6.65629 8.98839 6.40194 9.09375 6.13672 9.09375C5.8715 9.09375 5.61715 8.98839 5.42961 8.80086C5.24208 8.61332 5.13672 8.35897 5.13672 8.09375V4.09375Z" fill="white"/>
</svg>
