<svg width="47" height="46" viewBox="0 0 47 46" fill="none" xmlns="http://www.w3.org/2000/svg">
<g clip-path="url(#clip0_363_1294)">
<path d="M21.4784 26.9057L21.4784 26.9057C21.2966 26.8018 21.1455 26.6518 21.0404 26.4708C20.9354 26.2898 20.88 26.0843 20.8799 25.875C20.8799 25.875 20.8799 25.8749 20.8799 25.8749L20.8799 10.0625C20.8799 9.74756 21.005 9.44551 21.2277 9.22281C21.4504 9.00011 21.7524 8.875 22.0674 8.875C22.3823 8.875 22.6844 9.00011 22.9071 9.22281C23.1298 9.44551 23.2549 9.74756 23.2549 10.0625V25.0413V25.1863L23.3808 25.2583L32.7161 30.5927C32.9804 30.753 33.1718 31.01 33.2496 31.3092C33.3277 31.6093 33.2852 31.9281 33.1314 32.1973C32.9775 32.4665 32.7245 32.6649 32.4263 32.75C32.1291 32.8349 31.8105 32.8005 31.5382 32.6541L21.4784 26.9057Z" fill="#C8020A" stroke="white" stroke-width="0.5"/>
<path d="M39.5916 39.0867C35.3251 43.3531 29.5386 45.75 23.5049 45.75C17.4712 45.75 11.6847 43.3531 7.4182 39.0867C3.15175 34.8202 0.754883 29.0337 0.754883 23C0.754883 16.9663 3.15175 11.1798 7.4182 6.91332C11.6847 2.64687 17.4712 0.25 23.5049 0.25C29.5386 0.25 35.3251 2.64687 39.5916 6.91332C43.858 11.1798 46.2549 16.9663 46.2549 23C46.2549 29.0337 43.858 34.8202 39.5916 39.0867ZM37.9122 37.4073C41.7332 33.5862 43.8799 28.4038 43.8799 23C43.8799 17.5962 41.7332 12.4138 37.9122 8.5927C34.0911 4.77165 28.9087 2.625 23.5049 2.625C18.1011 2.625 12.9186 4.77165 9.09758 8.5927C5.27653 12.4138 3.12988 17.5962 3.12988 23C3.12988 28.4038 5.27653 33.5862 9.09758 37.4073C12.9186 41.2284 18.1011 43.375 23.5049 43.375C28.9087 43.375 34.0911 41.2284 37.9122 37.4073Z" fill="#C8020A" stroke="white" stroke-width="0.5"/>
</g>
<defs>
<clipPath id="clip0_363_1294">
<rect width="46" height="46" fill="white" transform="translate(0.504883)"/>
</clipPath>
</defs>
</svg>
