<svg width="142" height="130" viewBox="0 0 142 130" fill="none" xmlns="http://www.w3.org/2000/svg">
<path d="M1.10087 78.043L19.9219 30.3395C20.254 29.4979 21.4439 29.4947 21.7804 30.3345L40.8896 78.0231C40.9616 78.2029 40.9818 78.3965 40.9389 78.5853C39.8531 83.361 34.4587 92.4922 20.845 92.9821C7.19178 93.4734 2.00534 83.7441 1.04637 78.5655C1.01361 78.3886 1.03485 78.2103 1.10087 78.043Z" stroke="#C8020A" stroke-width="2"/>
<path d="M101.101 52.043L119.922 4.33945C120.254 3.49788 121.444 3.49471 121.78 4.3345L140.89 52.0231C140.962 52.2029 140.982 52.3965 140.939 52.5853C139.853 57.361 134.459 66.4922 120.845 66.9821C107.192 67.4734 102.005 57.7441 101.046 52.5655C101.014 52.3886 101.035 52.2103 101.101 52.043Z" stroke="#C8020A" stroke-width="2"/>
<line x1="72" y1="1" x2="72" y2="128" stroke="#C8020A" stroke-width="2" stroke-linecap="round"/>
<line x1="20.7108" y1="29.7774" x2="120.777" y2="3.28919" stroke="#C8020A" stroke-width="2" stroke-linecap="round"/>
<line x1="58" y1="128.694" x2="86" y2="128.694" stroke="#C8020A" stroke-width="2" stroke-linecap="round"/>
</svg>
