<svg width="36" height="35" viewBox="0 0 36 35" fill="none" xmlns="http://www.w3.org/2000/svg">
<line x1="18.1792" y1="0.75" x2="18.1792" y2="34.25" stroke="white" stroke-width="1.5" stroke-linecap="round"/>
<line x1="0.75" y1="-0.75" x2="5.75363" y2="-0.75" transform="matrix(-0.702216 0.711964 -0.702216 -0.711964 17.8325 27.2373)" stroke="white" stroke-width="1.5" stroke-linecap="round"/>
<line x1="0.75" y1="-0.75" x2="5.75363" y2="-0.75" transform="matrix(-0.702216 -0.711964 -0.702216 0.711964 17.8325 7.89893)" stroke="white" stroke-width="1.5" stroke-linecap="round"/>
<line x1="0.75" y1="-0.75" x2="5.75363" y2="-0.75" transform="matrix(0.702216 0.711964 0.702216 -0.711964 18.3696 27.2373)" stroke="white" stroke-width="1.5" stroke-linecap="round"/>
<line x1="0.75" y1="-0.75" x2="5.75363" y2="-0.75" transform="matrix(0.702216 -0.711964 0.702216 0.711964 18.3696 7.89893)" stroke="white" stroke-width="1.5" stroke-linecap="round"/>
<line x1="0.75" y1="-0.75" x2="33.8912" y2="-0.75" transform="matrix(0.863015 0.505178 -0.494839 0.868985 2.58691 9.1936)" stroke="white" stroke-width="1.5" stroke-linecap="round"/>
<line x1="0.75" y1="-0.75" x2="5.75363" y2="-0.75" transform="matrix(0.257029 0.972561 -0.959245 0.260597 26.0537 22.4585)" stroke="white" stroke-width="1.5" stroke-linecap="round"/>
<line x1="0.75" y1="-0.75" x2="5.75363" y2="-0.75" transform="matrix(-0.959245 0.260597 0.257029 0.972561 9.53516 12.7893)" stroke="white" stroke-width="1.5" stroke-linecap="round"/>
<line x1="0.75" y1="-0.75" x2="5.75363" y2="-0.75" transform="matrix(0.959245 -0.260597 -0.257029 -0.972561 26.3223 21.9868)" stroke="white" stroke-width="1.5" stroke-linecap="round"/>
<line x1="0.75" y1="-0.75" x2="5.75363" y2="-0.75" transform="matrix(-0.257029 -0.972561 0.959245 -0.260597 9.8042 12.3175)" stroke="white" stroke-width="1.5" stroke-linecap="round"/>
<line x1="0.75" y1="-0.75" x2="33.8912" y2="-0.75" transform="matrix(-0.863015 0.505178 0.494839 0.868985 33.4233 9.1936)" stroke="white" stroke-width="1.5" stroke-linecap="round"/>
<line x1="0.75" y1="-0.75" x2="5.75363" y2="-0.75" transform="matrix(-0.257029 0.972561 0.959245 0.260597 9.95654 22.4586)" stroke="white" stroke-width="1.5" stroke-linecap="round"/>
<line x1="0.75" y1="-0.75" x2="5.75363" y2="-0.75" transform="matrix(0.959245 0.260597 -0.257029 0.972561 26.4751 12.7893)" stroke="white" stroke-width="1.5" stroke-linecap="round"/>
<line x1="0.75" y1="-0.75" x2="5.75363" y2="-0.75" transform="matrix(-0.959245 -0.260597 0.257029 -0.972561 9.68799 21.9868)" stroke="white" stroke-width="1.5" stroke-linecap="round"/>
<line x1="0.75" y1="-0.75" x2="5.75363" y2="-0.75" transform="matrix(0.257029 -0.972561 -0.959245 -0.260597 26.2061 12.3175)" stroke="white" stroke-width="1.5" stroke-linecap="round"/>
</svg>
