<svg width="32" height="40" viewBox="0 0 32 40" fill="none" xmlns="http://www.w3.org/2000/svg">
<path d="M13.2432 20.9135L13.4228 20.2459L12.9145 20.7145C7.91836 25.321 7.72954 32.0979 9.55858 38.5565C9.80568 39.4291 8.83887 40.1286 8.1018 39.6329C7.95725 39.5357 6.1029 38.2675 4.28659 36.0866C2.46944 33.9048 0.704883 30.8273 0.704883 27.1068C0.704883 21.0395 4.16791 17.7537 7.58344 14.5211L7.59352 14.5116C11.1878 11.1098 14.641 7.84167 14.641 1.17303C14.641 0.345869 15.5984 -0.0978111 16.2196 0.428006L16.2196 0.428013C19.7348 3.40306 23.6332 7.64158 26.5868 12.3106C29.5429 16.9835 31.5375 22.0633 31.2831 26.7275C31.0052 31.8171 28.2678 36.1591 23.1033 39.6328C22.2968 40.1752 21.2678 39.2833 21.7111 38.3887C22.4361 36.9257 23.2317 34.9467 23.5438 33.0581C23.854 31.1809 23.6968 29.3235 22.4218 28.1888L22.3517 28.1263L22.2588 28.1404C20.724 28.373 18.9973 28.5024 17.4422 28.255C15.888 28.0078 14.5299 27.3888 13.6912 26.1459C12.8201 24.8552 12.6529 23.1082 13.2432 20.9135ZM16.7432 3.53305L16.458 3.25839L16.4062 3.65101C15.6275 9.5638 12.1008 12.9082 8.89761 15.9397L8.87946 15.9569C5.56111 19.0974 2.62758 21.8737 2.62758 27.1068C2.62758 30.8061 4.76164 33.8343 6.57603 35.7427L7.02331 36.2132L6.91834 35.5726C5.00585 23.9006 11.7774 18.2307 15.246 16.8307C16.0923 16.4894 16.9027 17.4329 16.4264 18.2337L16.4261 18.2342C16.0782 18.8224 15.4826 20.0467 15.1244 21.3523C14.9452 22.0055 14.8232 22.6867 14.8247 23.3232C14.8262 23.9588 14.9509 24.5653 15.2809 25.053C15.7585 25.7591 16.6401 26.1811 17.8318 26.3547C19.0268 26.5288 20.5668 26.4587 22.4127 26.1483C22.6126 26.1147 22.8182 26.1458 22.9997 26.2374C23.0761 26.2759 24.0581 26.7925 24.7918 28.1305C25.5226 29.4633 26.0221 31.6384 25.0917 35.0244L25.4282 35.2166C27.8628 32.7025 29.1874 29.8239 29.3628 26.6244C29.5903 22.4802 27.8987 18.1208 25.4294 14.1013C22.9581 10.0783 19.6941 6.37396 16.7432 3.53305Z" fill="white" stroke="#262626" stroke-width="0.4"/>
</svg>
