<svg width="39" height="23" viewBox="0 0 39 23" fill="none" xmlns="http://www.w3.org/2000/svg">
<path d="M1.50488 4.63063C2.48536 6.67954 5.62726 9.00003 11.3354 9C19.1534 8.99996 22.0174 0.999972 29.5258 1C36.3375 1.00003 35.099 4.18446 38.5049 5.14905" stroke="white" stroke-width="1.5"/>
<path d="M1.50488 10.6306C2.48536 12.6795 5.62726 15 11.3354 15C19.1534 15 22.0174 6.99997 29.5258 7C36.3375 7.00003 35.099 10.1845 38.5049 11.149" stroke="white" stroke-width="1.5"/>
<path d="M1.50488 17.6306C2.48536 19.6795 5.62726 22 11.3354 22C19.1534 22 22.0174 14 29.5258 14C36.3375 14 35.099 17.1845 38.5049 18.149" stroke="white" stroke-width="1.5"/>
</svg>
