<svg width="43" height="41" viewBox="0 0 43 41" fill="none" xmlns="http://www.w3.org/2000/svg">
<path d="M34.873 19.1231L34.8121 18.6932C34.5088 16.5522 33.6645 14.5176 32.3543 12.7732L32.0904 12.4218L32.4049 12.115L36.0671 8.54245L36.0672 8.54239C36.3545 8.26221 36.5138 7.88459 36.5142 7.49329C36.5145 7.102 36.3557 6.72414 36.0689 6.44353C35.7816 6.16254 35.3895 6.00247 34.978 6.00216C34.5666 6.00184 34.1742 6.16121 33.8866 6.4416L34.873 19.1231ZM34.873 19.1231H35.3072H40.3096L40.3322 19.1364H40.4678C40.8792 19.1364 41.2715 19.2961 41.5589 19.5768C41.8459 19.8571 42.0049 20.2348 42.0049 20.626C42.0049 21.0173 41.8459 21.3949 41.5589 21.6752C41.2715 21.9559 40.8792 22.1157 40.4678 22.1157H35.2981H34.8716L34.8044 22.5369C34.4633 24.6739 33.583 26.6954 32.2417 28.419L31.9674 28.7716L32.287 29.0838L35.9085 32.6209C36.1958 32.9016 36.3551 33.2797 36.3551 33.6715C36.3551 34.0632 36.1958 34.4413 35.9085 34.722C35.6207 35.0031 35.228 35.163 34.8161 35.163C34.4041 35.163 34.0114 35.0031 33.7236 34.722L30.0662 31.1453L29.7666 30.8523L29.4257 31.096C27.6369 32.3753 25.5501 33.202 23.3523 33.501L22.9197 33.5599V33.9964V39.0103C22.9197 39.4016 22.7607 39.7792 22.4737 40.0596C22.1863 40.3403 21.7941 40.5 21.3827 40.5C20.9712 40.5 20.579 40.3403 20.2916 40.0596C20.0046 39.7792 19.8456 39.4016 19.8456 39.0103V33.9611V33.5314L19.4208 33.4668C17.227 33.1327 15.1537 32.2708 13.3875 30.9598L13.0452 30.7057L12.7401 31.0036L9.11868 34.5407L9.1184 34.541C8.97629 34.68 8.80684 34.791 8.61949 34.8669C8.43215 34.9429 8.23095 34.9822 8.02744 34.9824C7.82391 34.9825 7.62261 34.9435 7.43516 34.8678C7.24775 34.7922 7.07819 34.6815 6.9358 34.5427C6.79345 34.4038 6.68114 34.2397 6.60469 34.0598C6.52824 33.8799 6.48897 33.6875 6.48881 33.4936C6.48865 33.2996 6.52762 33.1072 6.60379 32.9272C6.67995 32.7472 6.79199 32.5828 6.93409 32.4438L10.596 28.8671L10.91 28.5605L10.6466 28.2094C9.33741 26.4642 8.49312 24.4297 8.18852 22.2888L8.1274 21.8592H7.6935H2.54196C2.13055 21.8592 1.73828 21.6995 1.45088 21.4188C1.16389 21.1385 1.00488 20.7608 1.00488 20.3696C1.00488 19.9783 1.16389 19.6007 1.45088 19.3204C1.73828 19.0397 2.13055 18.8799 2.54196 18.8799H7.71163H8.13792L8.20534 18.459C8.54732 16.3235 9.42759 14.3035 10.768 12.581L11.0424 12.2284L10.7228 11.9162L7.1013 8.37907L7.095 8.37292L7.08848 8.36698C6.93789 8.22993 6.81782 8.06533 6.73482 7.88338C6.6518 7.70141 6.60736 7.50548 6.60378 7.30719C6.6002 7.10892 6.63754 6.91166 6.71389 6.72704C6.79024 6.54243 6.90418 6.37394 7.04958 6.23193C7.19503 6.08986 7.36891 5.97726 7.56119 5.9014C7.7535 5.82553 7.95992 5.78813 8.16796 5.79171C8.376 5.7953 8.58084 5.83978 8.77019 5.92218C8.95953 6.00458 9.12914 6.12304 9.26923 6.26988L9.27532 6.27626L9.28164 6.28243L12.9438 9.85937L13.2438 10.1524L13.5846 9.908C15.3716 8.62644 17.4586 7.79969 19.6568 7.5035L20.09 7.44513V7.00798V1.98965C20.09 1.59841 20.249 1.22076 20.536 0.940449C20.8234 0.65974 21.2157 0.5 21.6271 0.5C22.0385 0.5 22.4308 0.65974 22.7182 0.940449C23.0052 1.22076 23.1642 1.59841 23.1642 1.98965V7.02125V7.45066L23.5887 7.51551C25.781 7.85044 27.8527 8.71227 29.6177 10.0225L29.9601 10.2767L30.2651 9.97875L33.8863 6.44187L34.873 19.1231ZM21.4913 30.6498H21.492C24.2392 30.6461 26.8751 29.5787 28.8212 27.6779C30.7676 25.7767 31.8651 23.1968 31.8689 20.5029V20.5022C31.8689 18.4926 31.2587 16.529 30.1169 14.86C28.9752 13.1911 27.3537 11.8921 25.4588 11.1255C23.564 10.3589 21.4797 10.1585 19.4689 10.5492C17.4581 10.9398 15.6095 11.9044 14.1574 13.3227C12.7053 14.741 11.7149 16.5496 11.3136 18.5203C10.9122 20.4911 11.1183 22.5337 11.9053 24.3894C12.6922 26.2449 14.024 27.829 15.7303 28.9426C17.4366 30.0561 19.4414 30.6498 21.4913 30.6498Z" fill="white" stroke="#262626"/>
</svg>
