<svg width="92" height="26" viewBox="0 0 92 26" fill="none" xmlns="http://www.w3.org/2000/svg">
<path d="M7.48997 25.3381C12.0539 25.3381 15.3621 21.8729 15.3742 17.1882C15.3863 12.407 12.0177 9.0142 7.659 9.0142C5.89622 9.0142 4.25417 9.65412 3.16752 10.5717H3.04679L4.03684 2.30113H14.36V0.272727H2.14125L0.656161 12.2862L2.91397 12.576C3.97647 11.6946 5.67889 11.0668 7.34508 11.0788C10.6292 11.0909 13.1768 13.6023 13.1888 17.2244C13.1888 20.7138 10.8103 23.3097 7.48997 23.3097C4.64054 23.3097 2.52761 21.4382 2.38272 18.8182H0.197354C0.306019 22.5973 3.37278 25.3381 7.48997 25.3381ZM28.2751 25H28.9633C33.8653 25 35.121 21.0036 35.4108 13.1676L35.8092 2.30113H45.915V25H48.1729V0.272727H33.6601L33.2254 12.6726C32.9598 20.0497 31.9939 22.9112 28.9271 22.9112H28.2751V25ZM54.7441 25H69.3293V22.9716H57.0019V13.6385H68.3271V11.6101H57.0019V2.30113H69.0878V0.272727H54.7441V25ZM73.4344 2.30113H81.2703V25H83.5281V2.30113H91.3641V0.272727H73.4344V2.30113Z" fill="white"/>
</svg>
