<svg width="36" height="40" viewBox="0 0 36 40" fill="none" xmlns="http://www.w3.org/2000/svg">
<path d="M2.7918 23.574L2.7918 23.574L2.79 23.571C2.32693 22.7922 2.06805 21.9144 2.03552 21.0157C2.00888 20.104 2.24108 19.2021 2.70701 18.4104L8.00359 11.1587L13.303 18.4343C13.7678 19.2192 13.9997 20.1147 13.9742 21.0204C13.9426 21.9147 13.6857 22.7884 13.2255 23.5637L13.2236 23.567C12.1422 25.4119 10.1409 26.559 8.00477 26.559C5.87311 26.559 3.8737 25.4144 2.7918 23.574Z" stroke="#848484" stroke-width="1.4"/>
<path d="M22.7918 14.6982L22.7918 14.6982L22.79 14.6952C22.3269 13.9164 22.068 13.0386 22.0355 12.1399C22.0089 11.2282 22.2411 10.3263 22.707 9.53463L28.0036 2.28293L33.303 9.55855C33.7678 10.3434 33.9997 11.2389 33.9742 12.1446C33.9426 13.0389 33.6857 13.9126 33.2255 14.6879L33.2236 14.6912C32.1422 16.5361 30.1409 17.6832 28.0048 17.6832C25.8731 17.6832 23.8737 16.5386 22.7918 14.6982Z" stroke="#848484" stroke-width="1.4"/>
<path d="M17.7918 35.5031L17.7918 35.5031L17.79 35.5001C17.3269 34.7214 17.068 33.8436 17.0355 32.9449C17.0089 32.0332 17.2411 31.1312 17.707 30.3396L23.0036 23.0879L28.303 30.3635C28.7678 31.1484 28.9997 32.0438 28.9742 32.9496C28.9426 33.8439 28.6857 34.7175 28.2255 35.4929L28.2236 35.4962C27.1422 37.341 25.1409 38.4881 23.0048 38.4881C20.8731 38.4881 18.8737 37.3436 17.7918 35.5031Z" stroke="#848484" stroke-width="1.4"/>
</svg>
