<svg width="59" height="59" viewBox="0 0 59 59" fill="none" xmlns="http://www.w3.org/2000/svg">
<path d="M57.312 8.06619C56.4441 7.19675 55.0358 7.19525 54.1678 8.0625L27.4919 34.6681L17.8673 24.2148C17.0356 23.312 15.6295 23.2535 14.7253 24.085C13.8217 24.9167 13.7639 26.3235 14.5955 27.227L25.7878 39.3821C26.1977 39.8276 26.7713 40.0863 27.3762 40.0988C27.3924 40.0995 27.4081 40.0995 27.4237 40.0995C28.0115 40.0995 28.5769 39.866 28.9935 39.451L57.3076 11.2111C58.1778 10.3439 58.1793 8.93564 57.312 8.06619Z" fill="#1D7BAF"/>
<path d="M56.7763 27.2763C55.5482 27.2763 54.5528 28.2717 54.5528 29.5C54.5528 43.3146 43.3146 54.5528 29.5 54.5528C15.6862 54.5528 4.44724 43.3146 4.44724 29.5C4.44724 15.6862 15.6862 4.44724 29.5 4.44724C30.7282 4.44724 31.7237 3.45185 31.7237 2.22368C31.7237 0.995395 30.7282 0 29.5 0C13.2335 0 0 13.2335 0 29.5C0 45.7658 13.2335 59 29.5 59C45.7658 59 59 45.7658 59 29.5C59 28.2718 58.0046 27.2763 56.7763 27.2763Z" fill="#1D7BAF"/>
</svg>
